<?xml version="1.0" standalone="no"?>
<!DOCTYPE svg PUBLIC "-//W3C//DTD SVG 20010904//EN"
 "http://www.w3.org/TR/2001/REC-SVG-20010904/DTD/svg10.dtd">
<svg version="1.0" xmlns="http://www.w3.org/2000/svg"
 width="174.000000pt" height="174.000000pt" viewBox="0 0 174.000000 174.000000"
 preserveAspectRatio="xMidYMid meet">
<metadata>
Created by potrace 1.14, written by Peter Selinger 2001-2017
</metadata>
<g transform="translate(0.000000,174.000000) scale(0.100000,-0.100000)"
fill="#000000" stroke="none">
<path d="M768 1690 c-37 -11 -266 -139 -541 -302 -80 -48 -130 -103 -146 -161
-8 -29 -11 -146 -9 -387 3 -384 3 -384 74 -453 44 -42 566 -341 624 -357 59
-16 124 -6 190 28 144 75 527 303 558 332 69 66 73 87 75 402 3 421 -3 467
-76 538 -24 23 -278 180 -292 180 -1 0 -53 30 -116 66 -62 36 -135 77 -162 91
-52 26 -133 36 -179 23z m224 -125 c190 -107 463 -267 480 -282 9 -8 25 -31
34 -51 16 -33 18 -72 19 -362 1 -189 -2 -338 -8 -355 -23 -71 -87 -118 -382
-280 -27 -15 -54 -31 -60 -35 -19 -15 -120 -71 -164 -92 -34 -16 -57 -19 -96
-15 -50 5 -66 12 -195 87 -36 21 -87 50 -115 66 -27 15 -66 36 -85 47 -198
110 -257 156 -275 216 -4 14 -7 174 -7 358 0 327 1 333 23 373 15 27 44 54 84
79 105 66 507 293 534 302 54 17 108 3 213 -56z"/>
<path d="M728 1273 c-19 -5 -24 -38 -9 -62 5 -7 5 -25 0 -40 -5 -14 -11 -39
-14 -54 -5 -22 -10 -27 -23 -22 -85 35 -186 38 -255 7 -154 -68 -150 -262 8
-327 101 -43 254 -1 372 101 96 84 192 150 244 167 82 27 177 7 213 -45 26
-36 20 -91 -12 -126 -53 -56 -151 -63 -246 -16 -81 40 -114 15 -62 -47 66 -79
36 -215 -68 -311 -39 -35 -53 -35 -96 3 -33 30 -34 31 -15 45 10 8 29 14 41
14 12 0 29 3 38 6 21 8 21 50 0 58 -21 8 -81 -2 -116 -20 -22 -12 -27 -11 -32
2 -10 25 -7 52 6 60 7 4 44 15 83 24 63 14 70 18 70 40 0 22 -5 25 -44 28 -54
4 -135 -24 -174 -61 -24 -22 -28 -32 -22 -55 23 -94 90 -183 174 -230 36 -20
38 -20 76 -3 98 44 175 174 175 295 l0 63 38 -7 c198 -36 348 152 229 287 -58
65 -154 92 -245 68 -74 -19 -128 -49 -212 -117 -183 -147 -244 -178 -334 -172
-145 11 -188 158 -62 215 53 24 136 17 221 -17 69 -27 95 -26 96 3 4 114 6
126 24 139 29 22 54 17 83 -16 24 -28 60 -40 63 -22 1 4 3 37 4 74 3 74 -7 88
-46 60 -32 -23 -108 -24 -134 -2 -11 9 -28 15 -37 13z"/>
</g>
</svg>
